<?xml version="1.0" encoding="utf-8"?>
<!-- Generator: Adobe Illustrator 21.1.0, SVG Export Plug-In . SVG Version: 6.00 Build 0)  -->
<svg version="1.1" id="Layer_1" xmlns="http://www.w3.org/2000/svg" xmlns:xlink="http://www.w3.org/1999/xlink" x="0px" y="0px"
	 viewBox="0 0 30 30" style="enable-background:new 0 0 30 30;" xml:space="preserve">
<style type="text/css">
	.st0{fill:#002C5F;}
</style>
<g>
	<path class="st0" d="M14.9,29.7C6.8,29.7,0.2,23.1,0.2,15S6.8,0.3,14.9,0.3S29.6,6.9,29.6,15S23,29.7,14.9,29.7z M14.9,1.7
		C7.6,1.7,1.6,7.7,1.6,15s6,13.3,13.3,13.3s13.3-6,13.3-13.3S22.2,1.7,14.9,1.7z"/>
</g>
<g>
	<path class="st0" d="M18.6,24.2c-0.2,0-0.4-0.1-0.5-0.2l-9.5-9.5L18.1,6c0.3-0.3,0.7-0.2,1,0.1c0.3,0.3,0.2,0.7-0.1,1l-8.4,7.5
		l8.5,8.4c0.3,0.3,0.3,0.7,0,1C19,24.1,18.8,24.2,18.6,24.2z"/>
</g>
</svg>
