<?xml version="1.0" encoding="utf-8"?>
<!-- Generator: Adobe Illustrator 21.1.0, SVG Export Plug-In . SVG Version: 6.00 Build 0)  -->
<svg version="1.1" id="Layer_1" xmlns="http://www.w3.org/2000/svg" xmlns:xlink="http://www.w3.org/1999/xlink" x="0px" y="0px"
	 viewBox="0 0 30 30" style="enable-background:new 0 0 30 30;" xml:space="preserve">
<style type="text/css">
	.st0{fill:#002C5F;}
</style>
<g>
	<path class="st0" d="M0.3,15C0.3,6.9,6.9,0.3,15,0.3S29.7,6.9,29.7,15S23.1,29.7,15,29.7S0.3,23.1,0.3,15z M1.7,15
		c0,7.3,6,13.3,13.3,13.3s13.3-6,13.3-13.3S22.3,1.7,15,1.7C7.7,1.7,1.7,7.7,1.7,15z"/>
</g>
<g>
	<path class="st0" d="M11.3,24.2c0.2,0,0.4-0.1,0.5-0.2l9.5-9.5L11.8,6c-0.3-0.3-0.7-0.2-1,0.1c-0.2,0.2-0.2,0.7,0.1,0.9l8.4,7.5
		L10.8,23c-0.3,0.3-0.3,0.7,0,1C11,24.1,11.2,24.2,11.3,24.2z"/>
</g>
</svg>
