<svg xmlns="http://www.w3.org/2000/svg" width="26.219" height="22.1" viewBox="0 0 26.219 22.1">
  <metadata><?xpacket begin="﻿" id="W5M0MpCehiHzreSzNTczkc9d"?>
<x:xmpmeta xmlns:x="adobe:ns:meta/" x:xmptk="Adobe XMP Core 5.6-c142 79.160924, 2017/07/13-01:06:39        ">
   <rdf:RDF xmlns:rdf="http://www.w3.org/1999/02/22-rdf-syntax-ns#">
      <rdf:Description rdf:about=""/>
   </rdf:RDF>
</x:xmpmeta>
                                                                                                    
                                                                                                    
                                                                                                    
                                                                                                    
                                                                                                    
                                                                                                    
                                                                                                    
                                                                                                    
                                                                                                    
                                                                                                    
                                                                                                    
                                                                                                    
                                                                                                    
                                                                                                    
                                                                                                    
                                                                                                    
                                                                                                    
                                                                                                    
                                                                                                    
                                                                                                    
                           
<?xpacket end="w"?></metadata>
<defs>
    <style>
      .cls-1 {
        fill: #d1d3d4;
        fill-rule: evenodd;
      }
    </style>
  </defs>
  <path id="_copy_2" data-name="“ copy 2" class="cls-1" d="M320.483,2347.43a4.484,4.484,0,0,0,4.6-4.44c0-4.07-3.221-4.76-3.911-5.14a2.572,2.572,0,0,1-1.15-2.22c0-3.76,2.99-7.75,4.064-8.51a1.831,1.831,0,0,0,.767-1.16,0.655,0.655,0,0,0-.767-0.61,5.213,5.213,0,0,0-2.147.77c-1.15.61-8.587,5.52-8.587,13.57C313.353,2344.75,316.956,2347.43,320.483,2347.43Zm14.492,0a4.484,4.484,0,0,0,4.6-4.44c0-4.07-3.22-4.76-3.91-5.14a2.57,2.57,0,0,1-1.15-2.22c0-3.76,2.99-7.75,4.063-8.51a1.827,1.827,0,0,0,.767-1.16,0.655,0.655,0,0,0-.767-0.61,5.222,5.222,0,0,0-2.147.77c-1.15.61-8.587,5.52-8.587,13.57C327.844,2344.75,331.448,2347.43,334.975,2347.43Z" transform="translate(-313.344 -2325.34)"/>
</svg>
