<?xml version="1.0" encoding="utf-8"?>
<!-- Generator: Adobe Illustrator 21.1.0, SVG Export Plug-In . SVG Version: 6.00 Build 0)  -->
<svg version="1.1" id="Layer_1" xmlns="http://www.w3.org/2000/svg" xmlns:xlink="http://www.w3.org/1999/xlink" x="0px" y="0px"
	 viewBox="0 0 172 217" style="enable-background:new 0 0 172 217;" xml:space="preserve">
<style type="text/css">
	.st0{opacity:0.3;fill:url(#shadow_1_);enable-background:new    ;}
	.st1{fill:#49CAC5;}
	.st2{fill:#59D3CB;}
	.st3{fill:#7EEBD0;}
	.st4{fill:#6FDFCB;}
	.st5{fill:#C80D6C;}
	.st6{fill:#BC0D6C;}
	.st7{fill:#F20D6C;}
	.st8{fill:#E60D6C;}
	.st9{fill:#D50D6C;}
</style>
<linearGradient id="shadow_1_" gradientUnits="userSpaceOnUse" x1="85.8" y1="237" x2="85.8" y2="139.2" gradientTransform="matrix(1 0 0 1 0 -22)">
	<stop  offset="0" style="stop-color:#FFF9F9"/>
	<stop  offset="1" style="stop-color:#737190"/>
</linearGradient>
<ellipse id="shadow" class="st0" cx="85.8" cy="166.1" rx="85" ry="48.9"/>
<g id="evaluate">
	<polygon class="st1" points="18,44.5 33.1,36.8 39,41.3 42.8,54.3 31.1,58.3 	"/>
	<polygon class="st1" points="59.1,55.5 71.9,45.3 64.9,28.5 49.8,36 	"/>
	<polygon class="st2" points="92.3,85 103.1,79.7 110,81.2 119.8,84.7 108.1,89.7 100.6,87.7 	"/>
	<polygon class="st1" points="100.2,115.5 116.4,110.9 110.8,104.7 100.2,108.1 99.1,112.8 	"/>
	<polygon class="st2" points="100.2,115.5 114.1,131.9 129.1,124.9 116.4,110.9 	"/>
	<polygon class="st1" points="89.9,152.4 100.6,147.6 100.4,135.1 92.6,129.7 84.5,133.7 	"/>
	<polygon class="st1" points="12.2,80.8 26.6,72.6 27.1,82.3 	"/>
	<polygon class="st1" points="86.1,76.2 99.4,70.5 103.1,79.7 92.3,85 87.9,82.3 	"/>
	<path class="st2" d="M71.9,45.3c0,0,0.2,0.5,1.6,1.6s3.2,1.9,3.2,1.9L68.5,58c0,0-4.3,2-7,0.2c-2.6-1.8-2.4-2.6-2.4-2.6L71.9,45.3z
		"/>
	<polygon class="st3" points="37.1,34.7 51.4,27.3 64.9,28.5 49.8,36 	"/>
	<path class="st3" d="M125.4,91.2c2.7,5.7,3.3,8,3.3,8l-15.1,5.9c0,0-1.1-2.7-2.6-7.5s-3-7.9-3-7.9l11.8-5
		C119.8,84.7,123.7,87.6,125.4,91.2z"/>
	<path class="st3" d="M108.1,143.2l9.2-3.6l7.9-3.8l3.9-10.9l-8.5,3.8l-6.5,3.2c0,0-1.3,4-2.7,6.5
		C110.1,140.7,108.1,143.2,108.1,143.2z"/>
	<path class="st4" d="M100.2,115.5c0,0-0.6-1.2-0.5-3.3s0.5-4.1,0.5-4.1l13.4-3c0,0-0.2-2.4-2-7.3c-1.8-4.8-3.6-8.2-3.6-8.2
		s-5-1.9-7.6-2.7c-2.6-0.8-8.2-2-8.2-2s-1.4-1.2-2.9-3S86,76.2,86,76.2s1.4-3,2.8-6.9c1.3-3.7,1.8-6.7,1.8-6.7l-14-13.8L68.5,58
		c0,0-3,0.2-5.6-0.7s-3.8-1.7-3.8-1.7L49.8,36c0,0-2.7-0.4-5.6-0.7c-2.9-0.3-7.1-0.5-7.1-0.5l4.3,17.5c0,0-1.5,1.5-3.3,2.4
		C36.2,55.6,34,56,34,56L18,44.5c0,0-1.6,1.6-3.6,5.1S12,54.9,12,54.9l14.3,15.8l-0.2,8.7l-13.9,1.4c0,0,0.1,3.1,2.1,9
		c1.7,5,4.4,8.9,4.4,8.9l15.7,3.5l5.4,6.2l-3.2,18.4c0,0,3.6,3.7,8,7c4.4,3.2,7.1,4.4,7.1,4.4l11.2-8.3l3.8,1.5l9.7,21
		c0,0,1.8,0.6,5.7,0.5c3.9-0.2,7.7-0.3,7.7-0.3l-4.4-18.1c0,0,1.8-1,3.6-1.7c1.6-0.6,3.5-0.9,3.5-0.9l15.4,11.5c0,0,2.4-2.3,3.8-4.4
		c1.4-2.1,2.3-7,2.3-7L100.2,115.5z M76.4,108.1c-5.3,4.5-15.3,1.5-22.3-6.7s-8.3-18.6-2.9-23.1s15.3-1.5,22.3,6.7
		C80.4,93.3,81.7,103.6,76.4,108.1z"/>
	<path class="st3" d="M76.2,108.3c-5.3,4.5-15.3,1.5-22.3-6.7S45.7,83,51,78.5c0,0,0.4,10.6,7,19.7S76.2,108.3,76.2,108.3z"/>
	<polygon class="st2" points="106.4,55.1 104.9,68.2 86.1,76.2 90.7,62.6 	"/>
	<polygon class="st3" points="76.7,48.8 91.1,41.8 106.4,55.1 90.7,62.6 	"/>
	<polygon class="st5" points="93.7,35 100.2,33.2 112,41.3 106.1,44.7 99.8,40.5 	"/>
	<path class="st6" d="M107.1,44.2c0,0,1,0.1,3.8,0c2.7-0.1,4.1,0.4,4.1,0.4l3.4-3.5c0,0-0.8-0.1-3.7,0.1c-2.4,0.1-2.9,0.2-2.9,0.2
		L107.1,44.2z"/>
	<polygon class="st5" points="128.4,39.3 130,51.7 133.7,50.4 137.7,48.6 134.9,36.5 	"/>
	<polygon class="st7" points="125.5,37.6 122.6,35.4 128.8,32.8 134.9,36.5 128.4,39.3 	"/>
	<path class="st6" d="M129.1,52l4.4,4.5l5.4,9.1l3.8-1.9l4.1-2.4c0,0-2-4.5-4.2-7.3s-5.1-5.3-5.1-5.3L129.1,52z"/>
	<path class="st8" d="M139,65.6c0,0,2.8,4,6.2,5.8c3.4,1.7,7,2.4,7,2.4l6.7-3.5l-11.9-9L139,65.6z"/>
	<polygon class="st7" points="152.2,73.2 152.1,80.7 159,76.9 158.9,70.2 	"/>
	<path class="st6" d="M142.4,81.3c0,0-0.7,1.9-1.7,3.9s-3.6,3.7-3.6,3.7s2,0.2,3.6,0.2s3-0.9,3-0.9s1.4-1.4,2.3-2.9
		c1.3-2,2.5-4.5,2.5-4.5L142.4,81.3z"/>
	<path class="st5" d="M136.4,88.7l0.1,7.5l1.2,5.9l5.1-3.2l1-10.7c0,0-1.4,0.7-3.6,0.7C137.8,89,136.4,88.7,136.4,88.7z"/>
	<path class="st9" d="M141.4,64.5c0,0-2.5-5-5.6-8.3c-2.9-3.2-5.1-4.8-5.1-4.8l-2.2-12.1c0,0-0.4-0.6-2.3-1.9c-2.1-1.4-3.5-2-3.5-2
		l-7.7,8.5c0,0-1.1-0.3-3.4-0.4c-2.2-0.1-4.2,0.5-4.2,0.5l-13.7-9l-4.3,5l8.1,12.3c0,0-0.9,3.4-0.8,7.2c0.2,4.1,1.7,7.9,1.7,7.9
		l-5.8,8.1l3.9,6.7l12.3-1.3c0,0,3.6,3.1,6.1,4.8c2.5,1.6,6.8,3.2,6.8,3.2l9.8,14.5l6.2-1.2L137.1,89c0,0,2.2-0.8,3.9-3
		c1.5-1.9,2.7-4.6,2.7-4.6l8.4-0.7l0.1-7.5L141.4,64.5z M126.1,74c-2.6,3-7.7,2.7-11.4-0.6c-3.7-3.3-4.5-8.3-1.9-11.2
		c2.6-3,7.7-2.7,11.4,0.6S128.7,71.1,126.1,74z"/>
	<path class="st8" d="M126,74.2c-2.6,3-7.7,2.7-11.4-0.6c-3.7-3.3-4.5-8.3-1.9-11.2c0,0,0.4,5.3,3.9,9C120.1,75.1,126,74.2,126,74.2
		z"/>
</g>
</svg>
