<svg xmlns="http://www.w3.org/2000/svg" width="26.219" height="22.1" viewBox="0 0 26.219 22.1">
  <metadata><?xpacket begin="﻿" id="W5M0MpCehiHzreSzNTczkc9d"?>
<x:xmpmeta xmlns:x="adobe:ns:meta/" x:xmptk="Adobe XMP Core 5.6-c142 79.160924, 2017/07/13-01:06:39        ">
   <rdf:RDF xmlns:rdf="http://www.w3.org/1999/02/22-rdf-syntax-ns#">
      <rdf:Description rdf:about=""/>
   </rdf:RDF>
</x:xmpmeta>
                                                                                                    
                                                                                                    
                                                                                                    
                                                                                                    
                                                                                                    
                                                                                                    
                                                                                                    
                                                                                                    
                                                                                                    
                                                                                                    
                                                                                                    
                                                                                                    
                                                                                                    
                                                                                                    
                                                                                                    
                                                                                                    
                                                                                                    
                                                                                                    
                                                                                                    
                                                                                                    
                           
<?xpacket end="w"?></metadata>
<defs>
    <style>
      .cls-1 {
        fill: #d1d3d4;
        fill-rule: evenodd;
      }
    </style>
  </defs>
  <path id="_copy_3" data-name="“ copy 3" class="cls-1" d="M688.125,2447.1a4.486,4.486,0,0,0-4.6,4.45c0,4.06,3.22,4.75,3.911,5.13a2.577,2.577,0,0,1,1.15,2.23c0,3.75-2.991,7.74-4.064,8.51a1.837,1.837,0,0,0-.767,1.15,0.655,0.655,0,0,0,.767.61,5.174,5.174,0,0,0,2.147-.76c1.15-.62,8.587-5.53,8.587-13.58C695.255,2449.78,691.652,2447.1,688.125,2447.1Zm-14.492,0a4.486,4.486,0,0,0-4.6,4.45c0,4.06,3.22,4.75,3.91,5.13a2.575,2.575,0,0,1,1.15,2.23c0,3.75-2.99,7.74-4.063,8.51a1.833,1.833,0,0,0-.767,1.15,0.655,0.655,0,0,0,.767.61,5.179,5.179,0,0,0,2.147-.76c1.15-.62,8.587-5.53,8.587-13.58C680.764,2449.78,677.16,2447.1,673.633,2447.1Z" transform="translate(-669.031 -2447.09)"/>
</svg>
