<?xml version="1.0" encoding="utf-8"?>
<!-- Generator: Adobe Illustrator 21.1.0, SVG Export Plug-In . SVG Version: 6.00 Build 0)  -->
<svg version="1.1" id="Layer_1" xmlns="http://www.w3.org/2000/svg" xmlns:xlink="http://www.w3.org/1999/xlink" x="0px" y="0px"
	 viewBox="0 0 174 216" style="enable-background:new 0 0 174 216;" xml:space="preserve">
<style type="text/css">
	.st0{opacity:0.3;fill:url(#shadow_1_);enable-background:new    ;}
	.st1{fill:#6FDFCB;}
	.st2{fill:#49CAC5;}
	.st3{fill:#22B4BA;}
</style>
<linearGradient id="shadow_1_" gradientUnits="userSpaceOnUse" x1="86.7" y1="-400" x2="86.7" y2="-497.8" gradientTransform="matrix(1 0 0 1 0 614)">
	<stop  offset="0" style="stop-color:#FFF9F9"/>
	<stop  offset="1" style="stop-color:#737190"/>
</linearGradient>
<ellipse id="shadow" class="st0" cx="86.7" cy="165.1" rx="85" ry="48.9"/>
<g id="happy">
	<path class="st1" d="M120.2,65.6C94.2,30.5,53.9,14.4,31.6,31s-19.3,58.4,6.8,93.5c26,35.1,65.2,50,87.5,33.5
		C148.2,141.4,146.2,100.6,120.2,65.6z"/>
	<path class="st2" d="M135.7,55.7c-18.1-24.4-43-38.9-64.4-39.6c-9.5-0.3-27.8,4-41.9,16.9c-1,0.9,11.8-9,32.6-6.7
		c19.6,2.2,41.6,16.9,58.2,39.3c17.7,23.8,23.8,48.9,19.5,69.1c-1.8,8.3-4.2,18.6-19.7,26.9c4.2-1.2,16.5-7.5,20.7-10.6
		C163.9,133.5,161.8,91,135.7,55.7z"/>
	<path class="st2" d="M61,74c-4-5.4-10.1-7.7-13.5-5.2c-3.4,2.6-3,9,1,14.4s10.1,7.7,13.5,5.2C65.5,85.9,65,79.4,61,74z"/>
	<path class="st2" d="M108.9,86.6c-4-5.4-10.1-7.7-13.5-5.2c-3.4,2.6-3,9,1,14.4s10.1,7.7,13.5,5.2C113.4,98.5,112.9,92,108.9,86.6z
		"/>
	<g>
		<path class="st2" d="M93.2,145.3c-3.8,0-7.8-0.8-12-2.4c-9.2-3.5-18.1-10.6-25-19.9c-5.3-7.1-9-15-10.8-22.8
			c-0.4-1.8,0.7-3.6,2.5-4s3.6,0.7,4,2.5c1.6,6.9,4.9,13.9,9.6,20.2c6.2,8.3,14,14.6,22,17.6c7.5,2.9,14.2,2.5,18.8-0.9
			c4.9-3.6,7.1-10.3,6.2-18.7c-0.2-1.9,1.2-3.5,3-3.7c1.9-0.2,3.5,1.2,3.7,3c1.1,10.8-2.2,19.8-8.9,24.8
			C102.8,143.9,98.2,145.3,93.2,145.3z"/>
	</g>
	<g>
		<path class="st3" d="M115.4,116.3c1.1,10.8-2.2,19.8-8.9,24.8c-3.7,2.8-8.3,4.2-13.3,4.2c-3.8,0-7.8-0.8-12-2.4
			c-9.2-3.5-18.1-10.6-25-19.9c-5.3-7.1-9-15-10.8-22.8c0,0-0.2-1.6,0.5-2.6s2.1-1.4,2.1-1.4s-1.8,10.6,14.6,30.1
			c7.3,8.7,21.7,20.6,36.6,16.7C118.8,137.8,115.2,114.5,115.4,116.3z"/>
	</g>
	<path class="st3" d="M52.4,82.9c-4.9-5-4.9-14-4.9-14c-3.4,2.6-3,9,1,14.4S58.6,91,62,88.5C62,88.4,58.3,88.9,52.4,82.9z"/>
	<path class="st3" d="M100.4,95.5c-4.9-5-4.9-14-4.9-14c-3.4,2.6-3,9,1,14.4s10.1,7.7,13.5,5.2C110,101,106.2,101.5,100.4,95.5z"/>
</g>
</svg>
