<?xml version="1.0" encoding="utf-8"?>
<!-- Generator: Adobe Illustrator 21.1.0, SVG Export Plug-In . SVG Version: 6.00 Build 0)  -->
<svg version="1.1" id="Layer_1" xmlns="http://www.w3.org/2000/svg" xmlns:xlink="http://www.w3.org/1999/xlink" x="0px" y="0px"
	 viewBox="0 0 172 218" style="enable-background:new 0 0 172 218;" xml:space="preserve">
<style type="text/css">
	.st0{opacity:0.3;fill:url(#shadow_1_);enable-background:new    ;}
	.st1{fill:#D50D6C;}
	.st2{fill:#F20D6C;}
	.st3{fill:#59D3CB;}
	.st4{fill:#6FDFCB;}
	.st5{fill:#49CAC5;}
	.st6{opacity:0.4;fill:#FFFFFF;enable-background:new    ;}
</style>
<linearGradient id="shadow_1_" gradientUnits="userSpaceOnUse" x1="86.2" y1="237" x2="86.2" y2="139.2" gradientTransform="matrix(1 0 0 1 0 -22)">
	<stop  offset="0" style="stop-color:#FFF9F9"/>
	<stop  offset="1" style="stop-color:#737190"/>
</linearGradient>
<ellipse id="shadow" class="st0" cx="86.2" cy="166.1" rx="85" ry="48.9"/>
<g id="identify">
	<path class="st1" d="M136.6,158.7c0.5,0.8-0.9,4.2-3.8,5.9c-2.9,1.7-5.6,2.3-6.1,1.5s1.1-3.6,4-5.2
		C133.5,159.2,136.1,157.8,136.6,158.7z"/>
	<path class="st1" d="M93.8,116.6l32.9,49.8c0,0,1.4-2.8,3.9-4.5c3.7-2.7,6.1-2.9,6.1-2.9l-34.3-48.5l-7.5,3.4L93.8,116.6z"/>
	<path class="st2" d="M96.5,114.7l33.6,47.4c0,0-1.3,0.9-2.2,2.2s-1.2,2.1-1.2,2.1l-32.9-49.8L96.5,114.7z"/>
	<path class="st3" d="M95,118.1c0,0,0.8-1.3,3.4-3.2c3-2.2,5.5-2.1,5.5-2.1l-8.1-11.9c0,0-2.4,0.5-4.9,1.9s-3.7,3.8-3.7,3.8
		L95,118.1z"/>
	<path class="st4" d="M89.3,104.2l7.9,11.7c0,0-0.5,0.4-1.2,1.1c-0.6,0.7-1,1.5-1,1.5l-7.7-11.8c0,0,0.3-0.5,0.9-1.3
		C88.7,104.7,89.3,104.2,89.3,104.2z"/>
	<path class="st5" d="M97.9,91.3c-13.7,10.2-36.3,3.2-50.3-15.7S33.3,33,47.1,22.8c0.3-0.2,0.6-0.4,0.9-0.6
		c-6.1-0.6-11.8,0.6-16.3,4c-13.7,10.2-11.9,36,4.2,57.6s40.1,30.9,53.9,20.7c4.2-3.2,4.8-9.5,6.1-15C95.8,89.5,98,91.2,97.9,91.3z"
		/>
	<path class="st6" d="M32.7,40.4c0,0,10.1,22.7,32.9,30.5s25.6-2.1,25.6-2.1l2.9,18.4c0,0-10.1,9-29.3,5.2
		c-12.4-2.6-25.3-14.3-29-22.3C28.4,54.4,32.7,40.4,32.7,40.4z"/>
	<path class="st4" d="M82.6,99c-11.7,8.6-32,1.1-45.4-16.9s-14.7-39.6-3-48.3s32-1.1,45.4,16.9C93,68.6,94.3,90.3,82.6,99z
		 M83.5,47.6C67.5,26,43.3,16.7,29.5,27c-13.7,10.2-11.9,36,4.2,57.6c16,21.6,40.2,30.9,54,20.6C101.4,95,99.5,69.2,83.5,47.6z"/>
	<path class="st3" d="M93.7,42.3C82.5,27.2,67.1,18.3,54,17.8c-5.8-0.2-17.1,2.4-25.8,10.4c-0.6,0.6,7.2-5.6,20.1-4.1
		C60.4,25.5,74,34.5,84.2,48.3c10.9,14.7,14.7,30.1,12,42.6c-1.2,5.2-2.7,11.5-12.2,16.6c2.6-0.7,10.2-4.6,12.8-6.5
		C111.1,90.2,109.8,64,93.7,42.3z"/>
</g>
</svg>
