<?xml version="1.0" encoding="utf-8"?>
<!-- Generator: Adobe Illustrator 21.1.0, SVG Export Plug-In . SVG Version: 6.00 Build 0)  -->
<svg version="1.1" id="Layer_1" xmlns="http://www.w3.org/2000/svg" xmlns:xlink="http://www.w3.org/1999/xlink" x="0px" y="0px"
	 viewBox="0 0 173 216" style="enable-background:new 0 0 173 216;" xml:space="preserve">
<style type="text/css">
	.st0{opacity:0.3;fill:url(#shadow_1_);enable-background:new    ;}
	.st1{fill:url(#SVGID_1_);}
	.st2{fill:url(#SVGID_2_);}
	.st3{fill:#6FDFCB;}
	.st4{fill:#49CAC5;}
	.st5{fill:#7EEBD0;}
	.st6{fill:#E60D6C;}
	.st7{fill:#D50D6C;}
	.st8{fill:#BC0D6C;}
	.st9{fill:url(#SVGID_3_);}
</style>
<linearGradient id="shadow_1_" gradientUnits="userSpaceOnUse" x1="86.2" y1="-400" x2="86.2" y2="-497.8" gradientTransform="matrix(1 0 0 1 0 614)">
	<stop  offset="0" style="stop-color:#FFF9F9"/>
	<stop  offset="1" style="stop-color:#737190"/>
</linearGradient>
<ellipse id="shadow" class="st0" cx="86.2" cy="165.1" rx="85" ry="48.9"/>
<g id="increase">
	
		<linearGradient id="SVGID_1_" gradientUnits="userSpaceOnUse" x1="53.2642" y1="-498.1508" x2="112.3809" y2="-461.3539" gradientTransform="matrix(1 0 0 1 0 614)">
		<stop  offset="0" style="stop-color:#F4F3FF"/>
		<stop  offset="0.7568" style="stop-color:#E3E2F6"/>
		<stop  offset="1" style="stop-color:#B8B3D4"/>
	</linearGradient>
	<polygon class="st1" points="12.8,97.2 130.3,163.6 130.2,157.2 12.8,91.1 	"/>
	
		<linearGradient id="SVGID_2_" gradientUnits="userSpaceOnUse" x1="12.8" y1="-496.75" x2="159.8" y2="-496.75" gradientTransform="matrix(1 0 0 1 0 614)">
		<stop  offset="0" style="stop-color:#F4F3FF"/>
		<stop  offset="0.7568" style="stop-color:#E3E2F6"/>
		<stop  offset="1" style="stop-color:#B8B3D4"/>
	</linearGradient>
	<polygon class="st2" points="12.8,91.1 44.8,77.3 159.8,142.4 130.2,157.2 	"/>
	<polygon class="st3" points="44,107.5 22.8,95.4 22.9,86.2 44,97.2 	"/>
	<polygon class="st4" points="69.5,93.2 44,107.5 44,97 69.5,83.2 	"/>
	<polygon class="st5" points="51,80.4 71.9,92.8 98.1,77.9 77.8,68 	"/>
	<polygon class="st5" points="22.9,86.2 44,98.1 69.5,83.7 49.5,73.9 	"/>
	<polygon class="st3" points="72,123.4 51,111.4 51,80.4 71.9,92.3 	"/>
	<polygon class="st4" points="98.2,110.3 72,123.3 71.9,92.4 98.1,77.7 	"/>
	<polygon class="st5" points="79.3,59.4 100.8,72 127.3,56.8 106.7,46.7 	"/>
	<polygon class="st3" points="100.8,139.5 79.2,127.3 79.3,59.4 100.8,71.4 	"/>
	<polygon class="st4" points="127.2,126.2 100.8,139.5 100.8,71.6 127.2,56.6 	"/>
	<polygon class="st6" points="107.8,32.6 129.1,45 155.6,30.9 135.1,19.2 	"/>
	<polygon class="st7" points="128.3,155.1 107.7,143.5 107.8,32.4 129.1,44.5 	"/>
	<polygon class="st8" points="155.4,141.6 128.3,155.1 129.1,44.8 155.6,31 	"/>
	
		<linearGradient id="SVGID_3_" gradientUnits="userSpaceOnUse" x1="199.5096" y1="-478.0853" x2="137.9751" y2="-458.7804" gradientTransform="matrix(1 0 0 1 0 614)">
		<stop  offset="0" style="stop-color:#F4F3FF"/>
		<stop  offset="0.7568" style="stop-color:#E3E2F6"/>
		<stop  offset="1" style="stop-color:#B8B3D4"/>
	</linearGradient>
	<polygon class="st9" points="130.2,157.2 159.8,142.4 159.8,148.5 130.3,163.6 	"/>
</g>
</svg>
