<?xml version="1.0" encoding="utf-8"?>
<!-- Generator: Adobe Illustrator 21.1.0, SVG Export Plug-In . SVG Version: 6.00 Build 0)  -->
<svg version="1.1" id="Layer_1" xmlns="http://www.w3.org/2000/svg" xmlns:xlink="http://www.w3.org/1999/xlink" x="0px" y="0px"
	 viewBox="0 0 174 216.5" style="enable-background:new 0 0 174 216.5;" xml:space="preserve">
<style type="text/css">
	.st0{opacity:0.3;fill:url(#shadow_1_);enable-background:new    ;}
	.st1{fill:#D50D6C;}
	.st2{fill:#BC0D6C;}
	.st3{fill:#E60D6C;}
</style>
<linearGradient id="shadow_1_" gradientUnits="userSpaceOnUse" x1="86.8" y1="-400" x2="86.8" y2="-497.8" gradientTransform="matrix(1 0 0 1 0 614)">
	<stop  offset="0" style="stop-color:#FFF9F9"/>
	<stop  offset="1" style="stop-color:#737190"/>
</linearGradient>
<ellipse id="shadow" class="st0" cx="86.8" cy="165.1" rx="85" ry="48.9"/>
<g id="loyal">
	<path class="st1" d="M97.1,76.3c0,0-16.1-13.1-19.2-14.9c-3.2-1.8-19.8-22.6-45.8,6.2C10.2,91.8,18,117,21.6,122.8
		c4.5,7.3,25.2,18.9,25.2,18.9L97.1,76.3z"/>
	<path class="st2" d="M75.5,59.7c0,0,3.8-15.2,14.2-26.9c13.8-15.6,29-13.2,32-12.6s26.8,16.1,26.8,16.1s-14.6-4-28.4,4.2
		S99.8,78.3,99.8,78.3L75.5,59.7z"/>
	<path class="st3" d="M98.1,158.3c0,0,26.3-36.5,36.8-53.1s17.8-31.4,19.3-36.8c1.8-6.8,7.6-34.7-15.5-34.4
		c-35.2,0.4-39.5,42.2-39.5,42.2s-10.3-19.8-36.3-4.1c-31,18.7-27.8,60.2-17.9,68.3C53.7,147.6,98.1,158.3,98.1,158.3z"/>
</g>
</svg>
