<?xml version="1.0" encoding="utf-8"?>
<!-- Generator: Adobe Illustrator 21.1.0, SVG Export Plug-In . SVG Version: 6.00 Build 0)  -->
<svg version="1.1" id="Layer_1" xmlns="http://www.w3.org/2000/svg" xmlns:xlink="http://www.w3.org/1999/xlink" x="0px" y="0px"
	 viewBox="0 0 172 217" style="enable-background:new 0 0 172 217;" xml:space="preserve">
<style type="text/css">
	.st0{opacity:0.3;fill:url(#shadow_1_);enable-background:new    ;}
	.st1{fill:#E60D6C;}
	.st2{fill:#D50D6C;}
	.st3{fill:#BC0D6C;}
	.st4{fill:#EDEDED;}
	.st5{fill:#B2B2B2;}
</style>
<linearGradient id="shadow_1_" gradientUnits="userSpaceOnUse" x1="85.7" y1="237" x2="85.7" y2="139.2" gradientTransform="matrix(1 0 0 1 0 -22)">
	<stop  offset="0" style="stop-color:#FFF9F9"/>
	<stop  offset="1" style="stop-color:#737190"/>
</linearGradient>
<ellipse id="shadow" class="st0" cx="85.7" cy="166.1" rx="85" ry="48.9"/>
<g id="measure">
	<polygon class="st1" points="48,140.4 49,145.8 165.3,86.3 166.1,79.4 	"/>
	<polygon class="st2" points="166.1,79.5 48,140.4 19.2,94.9 34.7,87 35.2,87.7 39.1,85.8 39.7,84.4 48.1,80.1 48.6,81 52.4,79.1 
		53,77.5 61.2,73.3 61.7,74.3 65.7,72.2 66.1,70.8 73.9,66.8 74.4,67.7 78.1,65.7 78.7,64.3 86.5,60.3 87.1,61.2 90.8,59.2 
		91.4,57.7 100.8,52.9 101.3,53.8 105.2,51.8 105.8,50.4 114.7,45.8 115.3,46.8 119.2,44.8 119.6,43.3 136.7,34.4 	"/>
	<polygon class="st3" points="48,140.4 49,145.8 18.9,99.1 19.5,94.9 	"/>
	<g>
		<polygon class="st4" points="54,116.6 35.2,87.7 39.1,85.8 39.7,84.4 58.8,114.1 		"/>
	</g>
	<g>
		<polygon class="st4" points="93,96.4 74.4,67.7 79.2,65.1 97.9,93.9 		"/>
	</g>
	<g>
		<polygon class="st4" points="133.8,75.3 115.3,46.8 120.2,44.3 138.6,72.9 		"/>
	</g>
	<g>
		<polygon class="st4" points="111.6,69.4 101.3,53.8 106.3,51.2 116.5,66.8 		"/>
	</g>
	<g>
		<polygon class="st4" points="97.2,76.8 87.1,61.2 90.8,59.2 91.4,57.7 102.1,74.4 		"/>
	</g>
	<g>
		<polygon class="st4" points="71.9,89.9 61.7,74.3 66.7,71.7 76.8,87.4 		"/>
	</g>
	<g>
		<polygon class="st4" points="58.9,96.6 48.6,81 52.4,79.1 53,77.6 63.7,94.2 		"/>
	</g>
	<polygon class="st5" points="58.8,114.1 57.5,114.8 39.1,85.8 39.7,84.4 	"/>
	<polygon class="st5" points="63.6,94.1 62.4,94.8 52.4,79.1 53,77.6 	"/>
	<polygon class="st5" points="76.8,87.4 75.6,88 65.7,72.3 66.1,70.8 	"/>
	<polygon class="st5" points="97.8,93.9 96.4,94.7 78.1,65.7 78.7,64.3 	"/>
	<polygon class="st5" points="102,74.4 100.8,75 90.8,59.2 91.4,57.7 	"/>
	<polygon class="st5" points="116.5,66.8 115.2,67.5 105.2,51.8 105.8,50.4 	"/>
	<polygon class="st5" points="138.6,72.9 137.3,73.6 119.2,44.8 119.6,43.3 	"/>
</g>
</svg>
